<?xml version="1.0" encoding="UTF-8" standalone="no"?>
<!-- Generator: Gravit.io -->
<svg xmlns="http://www.w3.org/2000/svg" xmlns:xlink="http://www.w3.org/1999/xlink" style="isolation:isolate" viewBox="596 505 416 512.285" width="416pt" height="512.285pt"><defs><clipPath id="_clipPath_4JZZbaFL6Z17pl1bK4vNPJFgwo8pRieC"><rect x="596" y="505" width="416" height="512.285"/></clipPath></defs><g clip-path="url(#_clipPath_4JZZbaFL6Z17pl1bK4vNPJFgwo8pRieC)"><g><path d=" M 596 529.999 L 965.251 529.999 C 990.982 529.999 1012 551.017 1012 576.748 L 1012 970.536 C 1012 996.251 990.967 1017.285 965.251 1017.285 L 642.749 1017.285 C 617.018 1017.285 596 996.266 596 970.536 L 596 529.999 Z  M 616.063 550.06 L 965.25 550.06 C 979.933 550.06 991.938 562.099 991.938 576.748 L 991.938 970.534 C 991.938 985.183 979.899 997.222 965.25 997.222 L 642.75 997.222 C 628.101 997.222 616.063 985.217 616.063 970.534 L 616.063 550.06 Z " fill-rule="evenodd" fill="rgb(0,0,0)"/><path d=" M 682.139 683.071 L 682.139 673.04 L 682.139 663.008 L 925.865 663.008 L 925.865 673.04 L 925.865 683.071 L 682.139 683.071 Z  M 682.139 907.496 L 682.139 897.465 L 682.139 887.434 L 925 887.434 L 925.865 897.465 L 925.865 907.496 L 682.139 907.496 Z  M 682.139 832.689 L 682.139 822.658 L 682.139 812.626 L 925.865 812.626 L 925.865 822.658 L 925.865 832.689 L 682.139 832.689 Z  M 682.139 757.882 L 682.139 747.851 L 682.139 737.819 L 925.865 737.819 L 925.865 747.851 L 925.865 757 L 682.139 757.882 Z " fill="rgb(0,0,0)"/><path d=" M 677.802 505 L 689.49 505 L 701.178 505 L 701.178 595.12 L 689.49 595.12 L 677.802 595.12 L 677.802 516.688 L 677.802 505 Z  M 902.227 505 L 925 505 L 925.865 595.12 L 902.227 595.12 L 902.227 505 Z  M 827.42 505 L 850.796 505 L 850.796 595.12 L 827.42 595.12 L 827.42 505 Z  M 752.613 505 L 764.301 505 L 775.989 505 L 775.989 595.12 L 764.301 595.12 L 752.613 595.12 L 752.613 505 Z " fill="rgb(0,0,0)"/></g></g></svg>